<svg xmlns="http://www.w3.org/2000/svg" viewBox="0 0 32 32">
  <defs>
    <linearGradient id="grad" x1="0%" y1="0%" x2="100%" y2="100%">
      <stop offset="0%" style="stop-color:#FF6B9D"/>
      <stop offset="50%" style="stop-color:#C44BFF"/>
      <stop offset="100%" style="stop-color:#6B5BFF"/>
    </linearGradient>
  </defs>
  <!-- Background circle with gradient -->
  <circle cx="16" cy="16" r="15" fill="url(#grad)"/>
  <!-- Two connected hearts/circles representing matching -->
  <circle cx="11" cy="14" r="5" fill="white" opacity="0.9"/>
  <circle cx="21" cy="14" r="5" fill="white" opacity="0.9"/>
  <!-- Connection line -->
  <line x1="14" y1="14" x2="18" y2="14" stroke="white" stroke-width="2" stroke-linecap="round"/>
  <!-- Sparkle top right -->
  <path d="M26 6 L27 8 L29 7 L27 8.5 L28 11 L26.5 9 L24 10 L26 8.5 Z" fill="#FFE55C"/>
  <!-- Sparkle bottom left -->
  <path d="M4 22 L5 24 L7 23 L5 24.5 L6 27 L4.5 25 L2 26 L4 24.5 Z" fill="#FFE55C"/>
  <!-- Small heart at bottom -->
  <path d="M16 24 C16 24 12 20 12 18 C12 16.5 13.5 15.5 15 16.5 L16 17.5 L17 16.5 C18.5 15.5 20 16.5 20 18 C20 20 16 24 16 24 Z" fill="white" opacity="0.95"/>
</svg>
